# xmcd
#
# Track frame offsets:
#	150
#	15795
#	49427
#	83547
#	102985
#	130702
#	159717
#	186337
#	215335
#	249535
# Disc length: 3737 seconds
# Revision: 2
# Processed by: cddbd v1.5.1PL0 Copyright (c) Steve Scherf et al.
#
# Submitted via: libkcddb 0.10
#
DISCID=7c0e970a
DTITLE=Harold Melvin and The Blue Notes - Super Hits
DYEAR=1900
DGENRE=Unknown
TTITLE0=If You Don't Know Me By Now
TTITLE1=Be For Real
TTITLE2=Wake Up Everybody
TTITLE3=Nobody Could Take Your Place
TTITLE4=Don't Leave Me This Way
TTITLE5=Bad Luck
TTITLE6=Tell the World How I Feel About 'Cha
TTITLE7=The Love I Lost
TTITLE8=Yesterday I Had the Blues
TTITLE9=I'm Weak forYou
EXTD=
EXTT0=
EXTT1=
EXTT2=
EXTT3=
EXTT4=
EXTT5=
EXTT6=
EXTT7=
EXTT8=
EXTT9=
PLAYORDER=
